<svg width="112" height="32" viewBox="0 0 112 32" fill="none" xmlns="http://www.w3.org/2000/svg">
<path d="M10.129 27.416C8.42233 27.416 6.897 27.0213 5.553 26.232C4.209 25.4427 3.153 24.3973 2.385 23.096C1.63833 21.7733 1.265 20.312 1.265 18.712C1.265 17.112 1.63833 15.6507 2.385 14.328C3.153 13.0053 4.209 11.9493 5.553 11.16C6.897 10.3707 8.42233 9.976 10.129 9.976C11.857 9.976 13.3823 10.3707 14.705 11.16C16.049 11.9493 17.0943 13.0053 17.841 14.328C18.609 15.6507 18.993 17.112 18.993 18.712C18.993 20.312 18.609 21.7733 17.841 23.096C17.0943 24.3973 16.049 25.4427 14.705 26.232C13.3823 27.0213 11.857 27.416 10.129 27.416ZM10.129 23.48C11.0463 23.48 11.8463 23.2667 12.529 22.84C13.2117 22.392 13.7343 21.8053 14.097 21.08C14.481 20.3547 14.673 19.5653 14.673 18.712C14.673 17.8373 14.481 17.0373 14.097 16.312C13.7343 15.5867 13.2117 15.0107 12.529 14.584C11.8463 14.136 11.0463 13.912 10.129 13.912C9.21167 13.912 8.41167 14.136 7.729 14.584C7.04633 15.0107 6.513 15.5867 6.129 16.312C5.76633 17.0373 5.585 17.8373 5.585 18.712C5.585 19.5653 5.76633 20.3547 6.129 21.08C6.513 21.8053 7.04633 22.392 7.729 22.84C8.41167 23.2667 9.21167 23.48 10.129 23.48ZM27.081 27.384C25.8863 27.384 24.809 27.1067 23.849 26.552C22.889 25.9973 22.1317 25.208 21.577 24.184C21.0223 23.1387 20.745 21.9227 20.745 20.536V10.36H25.065V19.48C25.065 20.9093 25.353 21.9547 25.929 22.616C26.505 23.2773 27.3263 23.608 28.393 23.608C29.3103 23.608 30.1103 23.2773 30.793 22.616C31.497 21.9547 31.849 20.9093 31.849 19.48V10.36H36.169V27H31.977V24.504C31.5717 25.464 30.9743 26.1893 30.185 26.68C29.417 27.1493 28.3823 27.384 27.081 27.384ZM45.0215 27C43.3788 27 42.1202 26.5947 41.2455 25.784C40.3708 24.9733 39.9335 23.6613 39.9335 21.848V14.04H37.5975V10.36H39.9335V7L44.2535 6.552V10.36H47.7735V14.04H44.2535V21.624C44.2535 22.648 44.7015 23.16 45.5975 23.16H47.3895V27H45.0215ZM54.7573 27.416C51.9626 27.416 49.6586 26.4453 47.8453 24.504L50.7573 21.848C51.9733 23.2133 53.2746 23.896 54.6613 23.896C55.4079 23.896 55.9733 23.736 56.3573 23.416C56.7626 23.0747 56.9653 22.6587 56.9653 22.168C56.9653 21.8693 56.8906 21.6133 56.7413 21.4C56.6133 21.1867 56.3253 20.984 55.8773 20.792C55.4506 20.6 54.7999 20.408 53.9253 20.216C52.4319 19.8533 51.3226 19.4053 50.5973 18.872C49.8719 18.3387 49.3919 17.7413 49.1573 17.08C48.9226 16.4187 48.8053 15.736 48.8053 15.032C48.8053 13.5813 49.3493 12.376 50.4373 11.416C51.5466 10.4347 53.0719 9.944 55.0133 9.944C56.3573 9.944 57.5093 10.1467 58.4693 10.552C59.4293 10.9573 60.3359 11.7147 61.1893 12.824L58.0533 15.224C57.6479 14.584 57.1893 14.1253 56.6773 13.848C56.1866 13.5707 55.6639 13.432 55.1093 13.432C54.5119 13.432 54.0106 13.5493 53.6053 13.784C53.2213 14.0187 53.0293 14.392 53.0293 14.904C53.0293 15.1813 53.1573 15.4587 53.4133 15.736C53.6693 15.992 54.2879 16.248 55.2693 16.504C56.8906 16.9093 58.1279 17.3893 58.9813 17.944C59.8346 18.4773 60.4213 19.0853 60.7413 19.768C61.0613 20.4507 61.2213 21.208 61.2213 22.04C61.2213 23.064 60.9333 23.9813 60.3573 24.792C59.8026 25.6027 59.0346 26.2427 58.0533 26.712C57.0933 27.1813 55.9946 27.416 54.7573 27.416ZM65.049 8.984C64.3237 8.984 63.705 8.73867 63.193 8.248C62.7023 7.736 62.457 7.128 62.457 6.424C62.457 5.74133 62.7023 5.15467 63.193 4.664C63.705 4.152 64.3237 3.896 65.049 3.896C65.7957 3.896 66.4143 4.152 66.905 4.664C67.3957 5.15467 67.641 5.74133 67.641 6.424C67.641 7.14933 67.3957 7.75733 66.905 8.248C66.4143 8.73867 65.7957 8.984 65.049 8.984ZM62.905 27V10.36H67.225V27H62.905ZM68.948 27V26.52L76.244 14.968C76.436 14.648 76.692 14.3067 77.012 13.944H69.3V10.36H83.636V10.84L76.276 22.584C76.1053 22.84 75.9027 23.1173 75.668 23.416H83.476V27H68.948ZM92.1543 27.416C90.4476 27.416 88.9436 27.0213 87.6423 26.232C86.3409 25.4427 85.3276 24.3973 84.6023 23.096C83.8983 21.7733 83.5463 20.312 83.5463 18.712C83.5463 17.112 83.9196 15.6507 84.6663 14.328C85.4129 12.984 86.4263 11.9173 87.7063 11.128C89.0076 10.3387 90.4903 9.944 92.1543 9.944C93.8183 9.944 95.2796 10.3387 96.5383 11.128C97.8183 11.9173 98.8103 12.984 99.5143 14.328C100.24 15.6507 100.602 17.112 100.602 18.712C100.602 18.9467 100.592 19.192 100.57 19.448C100.549 19.704 100.517 19.9707 100.474 20.248H88.0263C88.2609 21.2293 88.7303 22.0293 89.4343 22.648C90.1596 23.2667 91.0663 23.576 92.1543 23.576C93.0929 23.576 93.9036 23.3627 94.5863 22.936C95.2903 22.5093 95.8343 21.976 96.2183 21.336L99.5783 23.864C98.9169 24.9093 97.9249 25.7627 96.6023 26.424C95.2796 27.0853 93.7969 27.416 92.1543 27.416ZM92.0903 13.656C91.0663 13.656 90.1916 13.9653 89.4663 14.584C88.7409 15.2027 88.2609 16.0133 88.0263 17.016H96.2503C96.0156 16.0987 95.5249 15.3093 94.7783 14.648C94.0529 13.9867 93.1569 13.656 92.0903 13.656ZM102.499 27V10.36H106.691V13.528C106.968 12.3333 107.533 11.4267 108.387 10.808C109.24 10.168 110.392 9.89067 111.843 9.976V14.04H111.235C109.997 14.04 108.952 14.4347 108.099 15.224C107.245 16.0133 106.819 17.1013 106.819 18.488V27H102.499Z" fill="#006BFF"/>
</svg>
